<svg width="35" height="36" viewBox="0 0 35 36" fill="none" xmlns="http://www.w3.org/2000/svg">
<path d="M31.2509 0.199951C29.1829 0.199951 27.5006 1.88222 27.5006 3.95027C27.5006 5.57783 28.5488 6.95245 30.0008 7.47015V8.95068H21.2501C20.5591 8.95068 20 9.50981 20 10.2008V12.701H22.5002V11.4509H31.2509C31.9419 11.4509 32.501 10.8918 32.501 10.2008V7.47023C33.953 6.95253 35.0013 5.57783 35.0013 3.95027C35.0013 1.88222 33.319 0.199951 31.2509 0.199951Z" fill="#D7EA86"/>
<path d="M21.2506 3.95027C21.2506 1.88222 19.5684 0.199951 17.5003 0.199951C15.4323 0.199951 13.75 1.88222 13.75 3.95027C13.75 5.57783 14.7982 6.95245 16.2502 7.47015V12.701H18.7504V7.47023C20.2024 6.95253 21.2506 5.57783 21.2506 3.95027Z" fill="#D7EA86"/>
<path d="M13.7512 8.95068H5.00042V7.47023C6.45241 6.95253 7.50063 5.57783 7.50063 3.95027C7.50063 1.88222 5.81836 0.199951 3.75031 0.199951C1.68227 0.199951 0 1.88222 0 3.95027C0 5.57783 1.04821 6.95245 2.50021 7.47015V10.2008C2.50021 10.8918 3.05934 11.4509 3.75031 11.4509H12.501V12.701H15.0013V10.2008C15.0013 9.50981 14.4421 8.95068 13.7512 8.95068Z" fill="#D7EA86"/>
<path d="M15 17.7014H20.0004V21.4517H15V17.7014Z" fill="#D7EA86"/>
<path d="M3.75 21.4517H6.25021V23.9519H3.75V21.4517Z" fill="#D7EA86"/>
<path d="M1.2501 17.7014C0.559663 17.7014 0 18.2611 0 18.9515V35.2029H10.0008V17.7014H1.2501ZM7.50063 31.4526C7.50063 32.1429 6.94097 32.7027 6.25052 32.7027H3.75031C3.05987 32.7027 2.50021 32.1429 2.50021 31.4526V28.9524C2.50021 28.2619 3.05987 27.7023 3.75031 27.7023H6.25052C6.94097 27.7023 7.50063 28.2619 7.50063 28.9524V31.4526ZM7.50063 23.9519C7.50063 24.6423 6.94097 25.202 6.25052 25.202H3.75031C3.05987 25.202 2.50021 24.6423 2.50021 23.9519V21.4517C2.50021 20.7613 3.05987 20.2016 3.75031 20.2016H6.25052C6.94097 20.2016 7.50063 20.7613 7.50063 21.4517V23.9519Z" fill="#D7EA86"/>
<path d="M3.75 28.9524H6.25021V31.4526H3.75V28.9524Z" fill="#D7EA86"/>
<path d="M28.7539 21.4517H31.2541V23.9519H28.7539V21.4517Z" fill="#D7EA86"/>
<path d="M25 17.7014V35.2029H35.0008V18.9515C35.0008 18.2611 34.4412 17.7014 33.7507 17.7014H25ZM27.5002 28.9524C27.5002 28.2619 28.0599 27.7023 28.7503 27.7023H31.2505C31.941 27.7023 32.5006 28.2619 32.5006 28.9524V31.4526C32.5006 32.1429 31.941 32.7027 31.2505 32.7027H28.7503C28.0599 32.7027 27.5002 32.1429 27.5002 31.4526V28.9524ZM27.5002 21.4517C27.5002 20.7613 28.0599 20.2016 28.7503 20.2016H31.2505C31.941 20.2016 32.5006 20.7613 32.5006 21.4517V23.9519C32.5006 24.6423 31.941 25.202 31.2505 25.202H28.7503C28.0599 25.202 27.5002 24.6423 27.5002 23.9519V21.4517Z" fill="#D7EA86"/>
<path d="M28.7539 28.9524H31.2541V31.4526H28.7539V28.9524Z" fill="#D7EA86"/>
<path d="M22.5009 13.9511H12.5001C11.8097 13.9511 11.25 14.5108 11.25 15.2012V35.2029H15.0003V30.2025C15.0003 29.512 15.56 28.9524 16.2504 28.9524H18.7506C19.4411 28.9524 20.0007 29.512 20.0007 30.2025V35.2029H23.751V15.2012C23.751 14.5108 23.1914 13.9511 22.5009 13.9511ZM21.2508 21.4517C21.2508 22.1421 20.6912 22.7018 20.0007 22.7018H15.0003C14.3099 22.7018 13.7502 22.1421 13.7502 21.4517V17.7014C13.7502 17.011 14.3099 16.4513 15.0003 16.4513H20.0007C20.6912 16.4513 21.2508 17.011 21.2508 17.7014V21.4517Z" fill="#D7EA86"/>
<path d="M16.25 30.2024H18.7502V35.2028H16.25V30.2024Z" fill="#D7EA86"/>
</svg>
