<svg width="33" height="32" viewBox="0 0 33 32" fill="none" xmlns="http://www.w3.org/2000/svg">
<path d="M7.83333 0H25.1667C27.1109 0.00211756 28.975 0.775414 30.3498 2.15022C31.7246 3.52503 32.4979 5.38906 32.5 7.33333V18C32.4979 19.9443 31.7246 21.8083 30.3498 23.1831C28.975 24.5579 27.1109 25.3312 25.1667 25.3333H18.5V28H21.8333C22.3638 28 22.8725 28.2107 23.2475 28.5858C23.6226 28.9609 23.8333 29.4696 23.8333 30C23.8333 30.5304 23.6226 31.0391 23.2475 31.4142C22.8725 31.7893 22.3638 32 21.8333 32H11.1667C10.6362 32 10.1275 31.7893 9.75245 31.4142C9.37738 31.0391 9.16667 30.5304 9.16667 30C9.16667 29.4696 9.37738 28.9609 9.75245 28.5858C10.1275 28.2107 10.6362 28 11.1667 28H14.5V25.3333H7.83333C5.88906 25.3312 4.02503 24.5579 2.65022 23.1831C1.27541 21.8083 0.502117 19.9443 0.499999 18V7.33333C0.502117 5.38906 1.27541 3.52503 2.65022 2.15022C4.02503 0.775414 5.88906 0.00211756 7.83333 0ZM25.1667 4H7.83333C6.94928 4 6.10143 4.35119 5.47631 4.97631C4.85119 5.60143 4.5 6.44928 4.5 7.33333V17.3333H28.5V7.33333C28.5 6.44928 28.1488 5.60143 27.5237 4.97631C26.8986 4.35119 26.0507 4 25.1667 4Z" fill="#D7EA86"/>
</svg>
