<svg width="33" height="45" viewBox="0 0 33 45" fill="none" xmlns="http://www.w3.org/2000/svg">
<path d="M33 13.0362V35.0362C33 40.0907 28.8878 44.2029 23.8333 44.2029H9.16667C4.11217 44.2029 0 40.0907 0 35.0362V13.0362C0 7.98171 4.11217 3.86955 9.16667 3.86955H9.48017C10.2373 1.73555 12.276 0.202881 14.6667 0.202881H18.3333C20.724 0.202881 22.7627 1.73555 23.5198 3.86955H23.8333C28.8878 3.86955 33 7.98171 33 13.0362ZM11.9167 19.4529C11.9167 21.981 13.9718 24.0362 16.5 24.0362C19.0282 24.0362 21.0833 21.981 21.0833 19.4529C21.0833 16.9247 19.0282 14.8695 16.5 14.8695C13.9718 14.8695 11.9167 16.9247 11.9167 19.4529ZM25.608 32.7464C24.5832 28.7625 20.7533 25.8695 16.5 25.8695C12.2467 25.8695 8.41683 28.7625 7.392 32.7464C7.139 33.7272 7.72933 34.7264 8.71017 34.9775C9.69467 35.236 10.6902 34.6402 10.9413 33.6594C11.5463 31.309 13.9352 29.5362 16.5 29.5362C19.0648 29.5362 21.4537 31.309 22.0587 33.6594C22.2713 34.488 23.0157 35.0362 23.8333 35.0362C23.9837 35.0362 24.1377 35.0179 24.2917 34.9775C25.2725 34.7264 25.861 33.7254 25.608 32.7464Z" fill="#D7EA86"/>
</svg>
