<svg width="29" height="30" viewBox="0 0 29 30" fill="none" xmlns="http://www.w3.org/2000/svg">
<path d="M28.1928 24.1197L27.5283 23.7367C27.6841 23.2316 27.7917 22.706 27.7917 22.1514C27.7917 21.5967 27.6841 21.0699 27.5283 20.566L28.1928 20.183C28.7716 19.8495 28.9698 19.1112 28.6363 18.5324C28.3028 17.9548 27.5645 17.7554 26.9869 18.0889L26.3296 18.4684C25.5985 17.6805 24.6464 17.1078 23.5637 16.8601V16.1097C23.5637 15.4427 23.0224 14.9014 22.3554 14.9014C21.6884 14.9014 21.147 15.4427 21.147 16.1097V16.8601C20.0644 17.1078 19.111 17.6793 18.3812 18.4684L17.7238 18.0889C17.1463 17.7554 16.4068 17.9548 16.0745 18.5324C15.741 19.1112 15.9391 19.8495 16.5179 20.183L17.1825 20.566C17.0266 21.0711 16.9191 21.5967 16.9191 22.1514C16.9191 22.706 17.0266 23.2328 17.1825 23.7367L16.5179 24.1197C15.9391 24.4532 15.741 25.1915 16.0745 25.7703C16.408 26.3479 17.1463 26.5473 17.7238 26.2138L18.3812 25.8344C19.1122 26.6222 20.0644 27.1949 21.147 27.4426V28.193C21.147 28.86 21.6884 29.4014 22.3554 29.4014C23.0224 29.4014 23.5637 28.86 23.5637 28.193V27.4426C24.6464 27.1949 25.5998 26.6234 26.3296 25.8344L26.9869 26.2138C27.5645 26.5473 28.304 26.3479 28.6363 25.7703C28.9698 25.1915 28.7716 24.4532 28.1928 24.1197ZM22.3542 23.9626C21.3549 23.9626 20.5417 23.1494 20.5417 22.1501C20.5417 21.1509 21.3549 20.3376 22.3542 20.3376C23.3535 20.3376 24.1667 21.1509 24.1667 22.1501C24.1667 23.1494 23.3535 23.9626 22.3542 23.9626ZM28.878 7.65015H0V6.44181C0 3.11044 2.71029 0.400146 6.04167 0.400146H9.09633C9.65579 0.400146 10.2165 0.531855 10.7167 0.78198L14.5302 2.68873C14.697 2.7721 14.883 2.8156 15.0691 2.8156H22.9571C25.874 2.8156 28.3149 4.89515 28.8768 7.64894L28.878 7.65015ZM13.9913 26.9835H6.04167C2.71029 26.9835 0 24.2732 0 20.9418V10.0668H29V15.143C27.2673 13.4985 24.9315 12.4835 22.3542 12.4835C17.0158 12.4835 12.6875 16.8117 12.6875 22.1501C12.6875 23.9131 13.1672 25.5601 13.9913 26.9835Z" fill="#D7EA86"/>
</svg>
