<svg width="35" height="33" viewBox="0 0 35 33" fill="none" xmlns="http://www.w3.org/2000/svg">
<path d="M10.8099 16.2029C8.84115 16.2624 7.2309 17.0243 5.97917 18.4886H3.53646C2.53993 18.4886 1.70139 18.2475 1.02083 17.7654C0.340278 17.2832 0 16.5779 0 15.6493C0 11.4469 0.753472 9.34574 2.26042 9.34574C2.33333 9.34574 2.59766 9.47074 3.05339 9.72074C3.50911 9.97074 4.10156 10.2237 4.83073 10.4797C5.5599 10.7356 6.28299 10.8636 7 10.8636C7.81424 10.8636 8.6224 10.7267 9.42448 10.4529C9.36371 10.8934 9.33333 11.2862 9.33333 11.6315C9.33333 13.2862 9.82552 14.81 10.8099 16.2029ZM30.3333 27.5779C30.3333 29.0065 29.8898 30.1344 29.0026 30.9618C28.1155 31.7892 26.9366 32.2029 25.4661 32.2029H9.53385C8.06337 32.2029 6.88455 31.7892 5.9974 30.9618C5.11024 30.1344 4.66667 29.0065 4.66667 27.5779C4.66667 26.9469 4.68793 26.3309 4.73047 25.7297C4.773 25.1285 4.85807 24.4797 4.98568 23.7832C5.11328 23.0868 5.27431 22.441 5.46875 21.8457C5.66319 21.2505 5.92448 20.6701 6.2526 20.1047C6.58073 19.5392 6.95747 19.057 7.38281 18.6582C7.80816 18.2594 8.32769 17.941 8.94141 17.7029C9.55512 17.4648 10.2326 17.3457 10.974 17.3457C11.0955 17.3457 11.3568 17.4737 11.7578 17.7297C12.1589 17.9856 12.6024 18.2713 13.0885 18.5868C13.5747 18.9023 14.2248 19.188 15.0391 19.444C15.8533 19.6999 16.6736 19.8279 17.5 19.8279C18.3264 19.8279 19.1467 19.6999 19.9609 19.444C20.7752 19.188 21.4253 18.9023 21.9115 18.5868C22.3976 18.2713 22.8411 17.9856 23.2422 17.7297C23.6432 17.4737 23.9045 17.3457 24.026 17.3457C24.7674 17.3457 25.4449 17.4648 26.0586 17.7029C26.6723 17.941 27.1918 18.2594 27.6172 18.6582C28.0425 19.057 28.4193 19.5392 28.7474 20.1047C29.0755 20.6701 29.3368 21.2505 29.5312 21.8457C29.7257 22.441 29.8867 23.0868 30.0143 23.7832C30.1419 24.4797 30.227 25.1285 30.2695 25.7297C30.3121 26.3309 30.3333 26.9469 30.3333 27.5779ZM11.6667 4.77431C11.6667 6.03621 11.2109 7.1136 10.2995 8.00645C9.38802 8.89931 8.28819 9.34574 7 9.34574C5.71181 9.34574 4.61198 8.89931 3.70052 8.00645C2.78906 7.1136 2.33333 6.03621 2.33333 4.77431C2.33333 3.5124 2.78906 2.43502 3.70052 1.54217C4.61198 0.649309 5.71181 0.202881 7 0.202881C8.28819 0.202881 9.38802 0.649309 10.2995 1.54217C11.2109 2.43502 11.6667 3.5124 11.6667 4.77431ZM24.5 11.6315C24.5 13.5243 23.8164 15.1404 22.4492 16.4797C21.082 17.819 19.4323 18.4886 17.5 18.4886C15.5677 18.4886 13.918 17.819 12.5508 16.4797C11.1836 15.1404 10.5 13.5243 10.5 11.6315C10.5 9.7386 11.1836 8.12252 12.5508 6.78324C13.918 5.44395 15.5677 4.77431 17.5 4.77431C19.4323 4.77431 21.082 5.44395 22.4492 6.78324C23.8164 8.12252 24.5 9.7386 24.5 11.6315ZM35 15.6493C35 16.5779 34.6597 17.2832 33.9792 17.7654C33.2986 18.2475 32.4601 18.4886 31.4635 18.4886H29.0208C27.7691 17.0243 26.1589 16.2624 24.1901 16.2029C25.1745 14.81 25.6667 13.2862 25.6667 11.6315C25.6667 11.2862 25.6363 10.8934 25.5755 10.4529C26.3776 10.7267 27.1858 10.8636 28 10.8636C28.717 10.8636 29.4401 10.7356 30.1693 10.4797C30.8984 10.2237 31.4909 9.97074 31.9466 9.72074C32.4023 9.47074 32.6667 9.34574 32.7396 9.34574C34.2465 9.34574 35 11.4469 35 15.6493ZM32.6667 4.77431C32.6667 6.03621 32.2109 7.1136 31.2995 8.00645C30.388 8.89931 29.2882 9.34574 28 9.34574C26.7118 9.34574 25.612 8.89931 24.7005 8.00645C23.7891 7.1136 23.3333 6.03621 23.3333 4.77431C23.3333 3.5124 23.7891 2.43502 24.7005 1.54217C25.612 0.649309 26.7118 0.202881 28 0.202881C29.2882 0.202881 30.388 0.649309 31.2995 1.54217C32.2109 2.43502 32.6667 3.5124 32.6667 4.77431Z" fill="#D7EA86"/>
</svg>
