<svg width="22" height="22" viewBox="0 0 22 22" fill="none" xmlns="http://www.w3.org/2000/svg">
<path d="M7.28122 2.6875C7.28122 2.51345 7.21208 2.34653 7.08901 2.22346C6.96593 2.10039 6.79902 2.03125 6.62497 2.03125C6.45092 2.03125 6.284 2.10039 6.16093 2.22346C6.03786 2.34653 5.96872 2.51345 5.96872 2.6875V4.07C4.70872 4.17062 3.88272 4.41737 3.27547 5.0255C2.66734 5.63275 2.42059 6.45962 2.31909 7.71875H19.6808C19.5793 6.45875 19.3326 5.63275 18.7245 5.0255C18.1172 4.41737 17.2903 4.17062 16.0312 4.06912V2.6875C16.0312 2.51345 15.9621 2.34653 15.839 2.22346C15.7159 2.10039 15.549 2.03125 15.375 2.03125C15.2009 2.03125 15.034 2.10039 14.9109 2.22346C14.7879 2.34653 14.7187 2.51345 14.7187 2.6875V4.01137C14.1368 4 13.4841 4 12.75 4H9.24997C8.51584 4 7.86309 4 7.28122 4.01137V2.6875Z" fill="black"/>
<path fill-rule="evenodd" clip-rule="evenodd" d="M2.25 11C2.25 10.2659 2.25 9.61313 2.26138 9.03125H19.7386C19.75 9.61313 19.75 10.2659 19.75 11V12.75C19.75 16.0496 19.75 17.6999 18.7245 18.7245C17.699 19.7491 16.0496 19.75 12.75 19.75H9.25C5.95038 19.75 4.30012 19.75 3.2755 18.7245C2.25087 17.699 2.25 16.0496 2.25 12.75V11ZM15.375 12.75C15.6071 12.75 15.8296 12.6578 15.9937 12.4937C16.1578 12.3296 16.25 12.1071 16.25 11.875C16.25 11.6429 16.1578 11.4204 15.9937 11.2563C15.8296 11.0922 15.6071 11 15.375 11C15.1429 11 14.9204 11.0922 14.7563 11.2563C14.5922 11.4204 14.5 11.6429 14.5 11.875C14.5 12.1071 14.5922 12.3296 14.7563 12.4937C14.9204 12.6578 15.1429 12.75 15.375 12.75ZM15.375 16.25C15.6071 16.25 15.8296 16.1578 15.9937 15.9937C16.1578 15.8296 16.25 15.6071 16.25 15.375C16.25 15.1429 16.1578 14.9204 15.9937 14.7563C15.8296 14.5922 15.6071 14.5 15.375 14.5C15.1429 14.5 14.9204 14.5922 14.7563 14.7563C14.5922 14.9204 14.5 15.1429 14.5 15.375C14.5 15.6071 14.5922 15.8296 14.7563 15.9937C14.9204 16.1578 15.1429 16.25 15.375 16.25ZM11.875 11.875C11.875 12.1071 11.7828 12.3296 11.6187 12.4937C11.4546 12.6578 11.2321 12.75 11 12.75C10.7679 12.75 10.5454 12.6578 10.3813 12.4937C10.2172 12.3296 10.125 12.1071 10.125 11.875C10.125 11.6429 10.2172 11.4204 10.3813 11.2563C10.5454 11.0922 10.7679 11 11 11C11.2321 11 11.4546 11.0922 11.6187 11.2563C11.7828 11.4204 11.875 11.6429 11.875 11.875ZM11.875 15.375C11.875 15.6071 11.7828 15.8296 11.6187 15.9937C11.4546 16.1578 11.2321 16.25 11 16.25C10.7679 16.25 10.5454 16.1578 10.3813 15.9937C10.2172 15.8296 10.125 15.6071 10.125 15.375C10.125 15.1429 10.2172 14.9204 10.3813 14.7563C10.5454 14.5922 10.7679 14.5 11 14.5C11.2321 14.5 11.4546 14.5922 11.6187 14.7563C11.7828 14.9204 11.875 15.1429 11.875 15.375ZM6.625 12.75C6.85706 12.75 7.07962 12.6578 7.24372 12.4937C7.40781 12.3296 7.5 12.1071 7.5 11.875C7.5 11.6429 7.40781 11.4204 7.24372 11.2563C7.07962 11.0922 6.85706 11 6.625 11C6.39294 11 6.17038 11.0922 6.00628 11.2563C5.84219 11.4204 5.75 11.6429 5.75 11.875C5.75 12.1071 5.84219 12.3296 6.00628 12.4937C6.17038 12.6578 6.39294 12.75 6.625 12.75ZM6.625 16.25C6.85706 16.25 7.07962 16.1578 7.24372 15.9937C7.40781 15.8296 7.5 15.6071 7.5 15.375C7.5 15.1429 7.40781 14.9204 7.24372 14.7563C7.07962 14.5922 6.85706 14.5 6.625 14.5C6.39294 14.5 6.17038 14.5922 6.00628 14.7563C5.84219 14.9204 5.75 15.1429 5.75 15.375C5.75 15.6071 5.84219 15.8296 6.00628 15.9937C6.17038 16.1578 6.39294 16.25 6.625 16.25Z" fill="black"/>
</svg>
