<svg width="18" height="23" viewBox="0 0 18 23" fill="none" xmlns="http://www.w3.org/2000/svg">
<path d="M13 3.5V15.5C13 16.0304 12.7893 16.5391 12.4142 16.9142C12.0391 17.2893 11.5304 17.5 11 17.5H3C2.46957 17.5 1.96086 17.2893 1.58579 16.9142C1.21071 16.5391 1 16.0304 1 15.5V6.742C1.00003 6.47556 1.0533 6.21181 1.15668 5.96624C1.26006 5.72068 1.41146 5.49824 1.602 5.312L4.917 2.07C5.29064 1.70466 5.79243 1.50007 6.315 1.5H11C11.5304 1.5 12.0391 1.71071 12.4142 2.08579C12.7893 2.46086 13 2.96957 13 3.5Z" stroke="#4082B8" stroke-width="2" stroke-linecap="round" stroke-linejoin="round"/>
<path d="M5 17.5V19.5C5 20.0304 5.21071 20.5391 5.58579 20.9142C5.96086 21.2893 6.46957 21.5 7 21.5H15C15.5304 21.5 16.0391 21.2893 16.4142 20.9142C16.7893 20.5391 17 20.0304 17 19.5V8.5C17 7.96957 16.7893 7.46086 16.4142 7.08579C16.0391 6.71071 15.5304 6.5 15 6.5H13" stroke="#4082B8" stroke-width="2" stroke-linecap="round" stroke-linejoin="round"/>
</svg>
