<svg width="32" height="32" viewBox="0 0 32 32" fill="none" xmlns="http://www.w3.org/2000/svg">
<path d="M7.33333 0H24.6667C26.6109 0.00211756 28.475 0.775414 29.8498 2.15022C31.2246 3.52503 31.9979 5.38906 32 7.33333V18C31.9979 19.9443 31.2246 21.8083 29.8498 23.1831C28.475 24.5579 26.6109 25.3312 24.6667 25.3333H18V28H21.3333C21.8638 28 22.3725 28.2107 22.7475 28.5858C23.1226 28.9609 23.3333 29.4696 23.3333 30C23.3333 30.5304 23.1226 31.0391 22.7475 31.4142C22.3725 31.7893 21.8638 32 21.3333 32H10.6667C10.1362 32 9.62753 31.7893 9.25245 31.4142C8.87738 31.0391 8.66667 30.5304 8.66667 30C8.66667 29.4696 8.87738 28.9609 9.25245 28.5858C9.62753 28.2107 10.1362 28 10.6667 28H14V25.3333H7.33333C5.38906 25.3312 3.52503 24.5579 2.15022 23.1831C0.775414 21.8083 0.00211716 19.9443 0 18V7.33333C0.00211716 5.38906 0.775414 3.52503 2.15022 2.15022C3.52503 0.775414 5.38906 0.00211756 7.33333 0ZM24.6667 4H7.33333C6.44928 4 5.60143 4.35119 4.97631 4.97631C4.35119 5.60143 4 6.44928 4 7.33333V17.3333H28V7.33333C28 6.44928 27.6488 5.60143 27.0237 4.97631C26.3986 4.35119 25.5507 4 24.6667 4Z" fill="white"/>
</svg>
