<svg width="35" height="31" viewBox="0 0 35 31" fill="none" xmlns="http://www.w3.org/2000/svg">
<path d="M33.625 10.602C32.7465 8.53937 31.473 6.66541 29.875 5.084C28.2808 3.49877 26.3918 2.23543 24.3125 1.364C22.1523 0.45725 19.8633 0 17.5 0C15.1367 0 12.8477 0.45725 10.6875 1.364C8.60824 2.23543 6.71917 3.49877 5.125 5.084C3.52699 6.66541 2.25345 8.53937 1.375 10.602C0.460937 12.7449 0 15.0156 0 17.36C0 22.5021 2.27734 27.3459 6.24609 30.6551L6.3125 30.7094C6.53906 30.8954 6.82422 31 7.11719 31H27.8867C28.1797 31 28.4648 30.8954 28.6914 30.7094L28.7578 30.6551C32.7227 27.3459 35 22.5021 35 17.36C35 15.0156 34.5352 12.7449 33.625 10.602ZM16.3281 4.65C16.3281 4.4795 16.4688 4.34 16.6406 4.34H18.3594C18.5312 4.34 18.6719 4.4795 18.6719 4.65V7.75C18.6719 7.9205 18.5312 8.06 18.3594 8.06H16.6406C16.4688 8.06 16.3281 7.9205 16.3281 7.75V4.65ZM8.04688 18.2125C8.04688 18.383 7.90625 18.5225 7.73438 18.5225H4.60938C4.4375 18.5225 4.29688 18.383 4.29688 18.2125V16.5075C4.29688 16.337 4.4375 16.1975 4.60938 16.1975H7.73438C7.90625 16.1975 8.04688 16.337 8.04688 16.5075V18.2125ZM11.5898 10.2881L10.375 11.4932C10.3163 11.5509 10.237 11.5833 10.1543 11.5833C10.0716 11.5833 9.99233 11.5509 9.93359 11.4932L7.72266 9.3C7.6645 9.24174 7.63188 9.16306 7.63188 9.08106C7.63188 8.99907 7.6645 8.92039 7.72266 8.86213L8.9375 7.657C9.05859 7.53688 9.25781 7.53688 9.37891 7.657L11.5898 9.85025C11.7109 9.97038 11.7109 10.168 11.5898 10.2881ZM22.9609 13.5276L19.6602 16.802C19.8555 17.5266 19.668 18.3288 19.0938 18.8984C18.8907 19.1001 18.6496 19.2602 18.3842 19.3694C18.1188 19.4786 17.8342 19.5348 17.5469 19.5348C17.2595 19.5348 16.975 19.4786 16.7095 19.3694C16.4441 19.2602 16.203 19.1001 16 18.8984C15.7966 18.697 15.6353 18.4578 15.5252 18.1945C15.4151 17.9312 15.3584 17.6489 15.3584 17.3639C15.3584 17.0788 15.4151 16.7966 15.5252 16.5332C15.6353 16.2699 15.7966 16.0308 16 15.8294C16.2712 15.5595 16.6095 15.3654 16.9805 15.2668C17.3516 15.1681 17.7423 15.1684 18.1133 15.2675L21.4141 11.9931C21.5352 11.873 21.7344 11.873 21.8555 11.9931L22.9609 13.0897C23.082 13.2099 23.082 13.4036 22.9609 13.5276ZM24.6406 11.4971L23.4258 10.292C23.3676 10.2337 23.335 10.1551 23.335 10.0731C23.335 9.99107 23.3676 9.91239 23.4258 9.85413L25.6367 7.66088C25.7578 7.54075 25.957 7.54075 26.0781 7.66088L27.293 8.866C27.4141 8.98612 27.4141 9.18375 27.293 9.30387L25.082 11.4971C25.0233 11.5548 24.944 11.5872 24.8613 11.5872C24.7787 11.5872 24.6994 11.5548 24.6406 11.4971ZM30.5469 18.2125C30.5469 18.383 30.4062 18.5225 30.2344 18.5225H27.1094C26.9375 18.5225 26.7969 18.383 26.7969 18.2125V16.5075C26.7969 16.337 26.9375 16.1975 27.1094 16.1975H30.2344C30.4062 16.1975 30.5469 16.337 30.5469 16.5075V18.2125Z" fill="white"/>
</svg>
