<svg width="33" height="34" viewBox="0 0 33 34" fill="none" xmlns="http://www.w3.org/2000/svg">
<path d="M29.4643 0.199951C27.5145 0.199951 25.9285 1.78599 25.9285 3.73573C25.9285 5.27019 26.9167 6.56618 28.2857 7.05426V8.4501H20.0355C19.3841 8.4501 18.8569 8.97724 18.8569 9.62869V11.9859H21.2141V10.8073H29.4643C30.1157 10.8073 30.6429 10.2801 30.6429 9.62869V7.05433C32.0118 6.56625 33 5.27019 33 3.73573C33 1.78599 31.414 0.199951 29.4643 0.199951Z" fill="white"/>
<path d="M20.0366 3.73573C20.0366 1.78599 18.4506 0.199951 16.5009 0.199951C14.5511 0.199951 12.9651 1.78599 12.9651 3.73573C12.9651 5.27019 13.9533 6.56618 15.3223 7.05426V11.9859H17.6795V7.05433C19.0484 6.56625 20.0366 5.27019 20.0366 3.73573Z" fill="white"/>
<path d="M12.9645 8.4501H4.71437V7.05433C6.0833 6.56625 7.07156 5.27019 7.07156 3.73573C7.07156 1.78599 5.48552 0.199951 3.53578 0.199951C1.58604 0.199951 0 1.78599 0 3.73573C0 5.27019 0.988251 6.56618 2.35719 7.05426V9.62869C2.35719 10.2801 2.88433 10.8073 3.53578 10.8073H11.7859V11.9859H14.1431V9.62869C14.1431 8.97724 13.616 8.4501 12.9645 8.4501Z" fill="white"/>
<path d="M14.1426 16.7003H18.8569V20.236H14.1426V16.7003Z" fill="white"/>
<path d="M3.53662 20.236H5.89381V22.5931H3.53662V20.236Z" fill="white"/>
<path d="M1.17859 16.7003C0.527647 16.7003 0 17.2279 0 17.8788V33.2006H9.42874V16.7003H1.17859ZM7.07156 29.6648C7.07156 30.3156 6.54391 30.8434 5.89296 30.8434H3.53578C2.88483 30.8434 2.35719 30.3156 2.35719 29.6648V27.3076C2.35719 26.6566 2.88483 26.129 3.53578 26.129H5.89296C6.54391 26.129 7.07156 26.6566 7.07156 27.3076V29.6648ZM7.07156 22.5932C7.07156 23.2441 6.54391 23.7718 5.89296 23.7718H3.53578C2.88483 23.7718 2.35719 23.2441 2.35719 22.5932V20.236C2.35719 19.5851 2.88483 19.0574 3.53578 19.0574H5.89296C6.54391 19.0574 7.07156 19.5851 7.07156 20.236V22.5932Z" fill="white"/>
<path d="M3.53662 27.3075H5.89381V29.6647H3.53662V27.3075Z" fill="white"/>
<path d="M27.1079 20.236H29.4651V22.5931H27.1079V20.236Z" fill="white"/>
<path d="M23.571 16.7003V33.2006H32.9998V17.8788C32.9998 17.2279 32.4721 16.7003 31.8212 16.7003H23.571ZM25.9282 27.3076C25.9282 26.6566 26.4559 26.129 27.1068 26.129H29.464C30.115 26.129 30.6426 26.6566 30.6426 27.3076V29.6648C30.6426 30.3156 30.115 30.8434 29.464 30.8434H27.1068C26.4559 30.8434 25.9282 30.3156 25.9282 29.6648V27.3076ZM25.9282 20.236C25.9282 19.5851 26.4559 19.0574 27.1068 19.0574H29.464C30.115 19.0574 30.6426 19.5851 30.6426 20.236V22.5932C30.6426 23.2441 30.115 23.7718 29.464 23.7718H27.1068C26.4559 23.7718 25.9282 23.2441 25.9282 22.5932V20.236Z" fill="white"/>
<path d="M27.1079 27.3075H29.4651V29.6647H27.1079V27.3075Z" fill="white"/>
<path d="M21.2133 13.1645H11.7845C11.1336 13.1645 10.606 13.6921 10.606 14.3431V33.2006H14.1417V28.4862C14.1417 27.8352 14.6694 27.3076 15.3203 27.3076H17.6775C18.3285 27.3076 18.8561 27.8352 18.8561 28.4862V33.2006H22.3919V14.3431C22.3919 13.6921 21.8642 13.1645 21.2133 13.1645ZM20.0347 20.236C20.0347 20.8869 19.507 21.4146 18.8561 21.4146H14.1417C13.4908 21.4146 12.9631 20.8869 12.9631 20.236V16.7003C12.9631 16.0493 13.4908 15.5217 14.1417 15.5217H18.8561C19.507 15.5217 20.0347 16.0493 20.0347 16.7003V20.236Z" fill="white"/>
<path d="M15.3201 28.4862H17.6773V33.2006H15.3201V28.4862Z" fill="white"/>
</svg>
