<svg width="35" height="33" viewBox="0 0 35 33" fill="none" xmlns="http://www.w3.org/2000/svg">
<path d="M10.8099 16.2006C8.84115 16.2601 7.2309 17.022 5.97917 18.4863H3.53646C2.53993 18.4863 1.70139 18.2452 1.02083 17.7631C0.340278 17.2809 0 16.5756 0 15.647C0 11.4446 0.753472 9.34342 2.26042 9.34342C2.33333 9.34342 2.59766 9.46842 3.05339 9.71842C3.50911 9.96842 4.10156 10.2214 4.83073 10.4773C5.5599 10.7333 6.28299 10.8613 7 10.8613C7.81424 10.8613 8.6224 10.7244 9.42448 10.4506C9.36372 10.891 9.33333 11.2839 9.33333 11.6291C9.33333 13.2839 9.82552 14.8077 10.8099 16.2006ZM30.3333 27.5756C30.3333 29.0041 29.8898 30.1321 29.0026 30.9595C28.1154 31.7869 26.9366 32.2006 25.4661 32.2006H9.53385C8.06337 32.2006 6.88455 31.7869 5.9974 30.9595C5.11024 30.1321 4.66667 29.0041 4.66667 27.5756C4.66667 26.9446 4.68793 26.3285 4.73047 25.7273C4.773 25.1262 4.85807 24.4773 4.98568 23.7809C5.11328 23.0845 5.27431 22.4387 5.46875 21.8434C5.66319 21.2482 5.92448 20.6678 6.2526 20.1023C6.58073 19.5369 6.95747 19.0547 7.38281 18.6559C7.80816 18.2571 8.32769 17.9387 8.94141 17.7006C9.55512 17.4625 10.2326 17.3434 10.974 17.3434C11.0955 17.3434 11.3568 17.4714 11.7578 17.7273C12.1589 17.9833 12.6024 18.269 13.0885 18.5845C13.5747 18.9 14.2248 19.1857 15.0391 19.4416C15.8533 19.6976 16.6736 19.8256 17.5 19.8256C18.3264 19.8256 19.1467 19.6976 19.9609 19.4416C20.7752 19.1857 21.4253 18.9 21.9115 18.5845C22.3976 18.269 22.8411 17.9833 23.2422 17.7273C23.6432 17.4714 23.9045 17.3434 24.026 17.3434C24.7674 17.3434 25.4449 17.4625 26.0586 17.7006C26.6723 17.9387 27.1918 18.2571 27.6172 18.6559C28.0425 19.0547 28.4193 19.5369 28.7474 20.1023C29.0755 20.6678 29.3368 21.2482 29.5312 21.8434C29.7257 22.4387 29.8867 23.0845 30.0143 23.7809C30.1419 24.4773 30.227 25.1262 30.2695 25.7273C30.3121 26.3285 30.3333 26.9446 30.3333 27.5756ZM11.6667 4.77199C11.6667 6.0339 11.2109 7.11128 10.2995 8.00413C9.38802 8.89699 8.28819 9.34342 7 9.34342C5.71181 9.34342 4.61198 8.89699 3.70052 8.00413C2.78906 7.11128 2.33333 6.0339 2.33333 4.77199C2.33333 3.51009 2.78906 2.4327 3.70052 1.53985C4.61198 0.64699 5.71181 0.200562 7 0.200562C8.28819 0.200562 9.38802 0.64699 10.2995 1.53985C11.2109 2.4327 11.6667 3.51009 11.6667 4.77199ZM24.5 11.6291C24.5 13.522 23.8164 15.1381 22.4492 16.4773C21.082 17.8166 19.4323 18.4863 17.5 18.4863C15.5677 18.4863 13.918 17.8166 12.5508 16.4773C11.1836 15.1381 10.5 13.522 10.5 11.6291C10.5 9.73628 11.1836 8.1202 12.5508 6.78092C13.918 5.44163 15.5677 4.77199 17.5 4.77199C19.4323 4.77199 21.082 5.44163 22.4492 6.78092C23.8164 8.1202 24.5 9.73628 24.5 11.6291ZM35 15.647C35 16.5756 34.6597 17.2809 33.9792 17.7631C33.2986 18.2452 32.4601 18.4863 31.4635 18.4863H29.0208C27.7691 17.022 26.1589 16.2601 24.1901 16.2006C25.1745 14.8077 25.6667 13.2839 25.6667 11.6291C25.6667 11.2839 25.6363 10.891 25.5755 10.4506C26.3776 10.7244 27.1858 10.8613 28 10.8613C28.717 10.8613 29.4401 10.7333 30.1693 10.4773C30.8984 10.2214 31.4909 9.96842 31.9466 9.71842C32.4023 9.46842 32.6667 9.34342 32.7396 9.34342C34.2465 9.34342 35 11.4446 35 15.647ZM32.6667 4.77199C32.6667 6.0339 32.2109 7.11128 31.2995 8.00413C30.388 8.89699 29.2882 9.34342 28 9.34342C26.7118 9.34342 25.612 8.89699 24.7005 8.00413C23.7891 7.11128 23.3333 6.0339 23.3333 4.77199C23.3333 3.51009 23.7891 2.4327 24.7005 1.53985C25.612 0.64699 26.7118 0.200562 28 0.200562C29.2882 0.200562 30.388 0.64699 31.2995 1.53985C32.2109 2.4327 32.6667 3.51009 32.6667 4.77199Z" fill="white"/>
</svg>
