<svg width="29" height="30" viewBox="0 0 29 30" fill="none" xmlns="http://www.w3.org/2000/svg">
<g clip-path="url(#clip0_250_1222)">
<path d="M28.1928 23.9201L27.5282 23.5371C27.6841 23.032 27.7917 22.5064 27.7917 21.9518C27.7917 21.3971 27.6841 20.8703 27.5282 20.3664L28.1928 19.9834C28.7716 19.6499 28.9698 18.9116 28.6363 18.3328C28.3028 17.7552 27.5645 17.5559 26.9869 17.8894L26.3296 18.2688C25.5985 17.4809 24.6464 16.9082 23.5637 16.6605V15.9101C23.5637 15.2431 23.0224 14.7018 22.3554 14.7018C21.6884 14.7018 21.147 15.2431 21.147 15.9101V16.6605C20.0644 16.9082 19.111 17.4797 18.3812 18.2688L17.7238 17.8894C17.1463 17.5559 16.4068 17.7552 16.0745 18.3328C15.741 18.9116 15.9391 19.6499 16.5179 19.9834L17.1825 20.3664C17.0266 20.8715 16.9191 21.3971 16.9191 21.9518C16.9191 22.5064 17.0266 23.0332 17.1825 23.5371L16.5179 23.9201C15.9391 24.2536 15.741 24.9919 16.0745 25.5707C16.408 26.1483 17.1463 26.3477 17.7238 26.0142L18.3812 25.6348C19.1122 26.4226 20.0644 26.9954 21.147 27.2431V27.9934C21.147 28.6604 21.6884 29.2018 22.3554 29.2018C23.0224 29.2018 23.5637 28.6604 23.5637 27.9934V27.2431C24.6464 26.9954 25.5998 26.4238 26.3296 25.6348L26.9869 26.0142C27.5645 26.3477 28.304 26.1483 28.6363 25.5707C28.9698 24.9919 28.7716 24.2536 28.1928 23.9201ZM22.3542 23.7631C21.3549 23.7631 20.5417 22.9499 20.5417 21.9506C20.5417 20.9513 21.3549 20.1381 22.3542 20.1381C23.3535 20.1381 24.1667 20.9513 24.1667 21.9506C24.1667 22.9499 23.3535 23.7631 22.3542 23.7631ZM28.878 7.45056H0V6.24223C0 2.91085 2.71029 0.200562 6.04167 0.200562H9.09633C9.65579 0.200562 10.2165 0.33227 10.7167 0.582395L14.5302 2.48915C14.697 2.57252 14.883 2.61602 15.0691 2.61602H22.9571C25.874 2.61602 28.3149 4.69556 28.8768 7.44935L28.878 7.45056ZM13.9913 26.7839H6.04167C2.71029 26.7839 0 24.0736 0 20.7422V9.86723H29V14.9434C27.2673 13.2989 24.9315 12.2839 22.3542 12.2839C17.0158 12.2839 12.6875 16.6121 12.6875 21.9506C12.6875 23.7135 13.1672 25.3605 13.9913 26.7839Z" fill="white"/>
</g>
<defs>
<clipPath id="clip0_250_1222">
<rect width="29" height="29" fill="white" transform="translate(0 0.200562)"/>
</clipPath>
</defs>
</svg>
