<svg width="31" height="41" viewBox="0 0 31 41" fill="none" xmlns="http://www.w3.org/2000/svg">
<path d="M31 11.8672V31.8672C31 36.4622 27.1371 40.2006 22.3889 40.2006H8.61111C3.86294 40.2006 0 36.4622 0 31.8672V11.8672C0 7.27223 3.86294 3.53389 8.61111 3.53389H8.90561C9.61689 1.59389 11.532 0.200562 13.7778 0.200562H17.2222C19.468 0.200562 21.3831 1.59389 22.0944 3.53389H22.3889C27.1371 3.53389 31 7.27223 31 11.8672ZM11.1944 17.7006C11.1944 19.9989 13.1251 21.8672 15.5 21.8672C17.8749 21.8672 19.8056 19.9989 19.8056 17.7006C19.8056 15.4022 17.8749 13.5339 15.5 13.5339C13.1251 13.5339 11.1944 15.4022 11.1944 17.7006ZM24.056 29.7856C23.0933 26.1639 19.4956 23.5339 15.5 23.5339C11.5044 23.5339 7.90672 26.1639 6.944 29.7856C6.70633 30.6772 7.26089 31.5856 8.18228 31.8139C9.10711 32.0489 10.0423 31.5072 10.2782 30.6156C10.8466 28.4789 13.0906 26.8672 15.5 26.8672C17.9094 26.8672 20.1534 28.4789 20.7218 30.6156C20.9216 31.3689 21.6208 31.8672 22.3889 31.8672C22.5301 31.8672 22.6748 31.8506 22.8194 31.8139C23.7408 31.5856 24.2937 30.6756 24.056 29.7856Z" fill="white"/>
</svg>
