<svg width="32" height="33" viewBox="0 0 32 33" fill="none" xmlns="http://www.w3.org/2000/svg">
<path d="M28 12.2H21.3333C19.1333 12.2 17.3333 14 17.3333 16.2C17.3333 18.4 19.1333 20.2 21.3333 20.2H28C30.2 20.2 32 18.4 32 16.2C32 14 30.2 12.2 28 12.2ZM21.3333 8.19995H28C30.2 8.19995 32 6.39995 32 4.19995C32 1.99995 30.2 0.199951 28 0.199951H21.3333C19.1333 0.199951 17.3333 1.99995 17.3333 4.19995C17.3333 6.39995 19.1333 8.19995 21.3333 8.19995ZM28 24.2H21.3333C19.1333 24.2 17.3333 26 17.3333 28.2C17.3333 30.4 19.1333 32.2 21.3333 32.2H28C30.2 32.2 32 30.4 32 28.2C32 26 30.2 24.2 28 24.2ZM9.33333 17.5333H5.33333C2.38667 17.5333 0 19.92 0 22.8666V26.8666C0 29.8133 2.38667 32.2 5.33333 32.2H9.33333C12.28 32.2 14.6667 29.8133 14.6667 26.8666V22.8666C14.6667 19.92 12.28 17.5333 9.33333 17.5333ZM9.33333 0.199951H5.33333C2.38667 0.199951 0 2.58662 0 5.53328V9.53329C0 12.48 2.38667 14.8666 5.33333 14.8666H9.33333C12.28 14.8666 14.6667 12.48 14.6667 9.53329V5.53328C14.6667 2.58662 12.28 0.199951 9.33333 0.199951Z" fill="white"/>
</svg>
