<svg width="31" height="31" viewBox="0 0 31 31" fill="none" xmlns="http://www.w3.org/2000/svg">
<path d="M23.25 15.5C18.9694 15.5 15.5 18.9694 15.5 23.25C15.5 27.5306 18.9694 31 23.25 31C27.5305 31 30.9999 27.5306 30.9999 23.25C30.9999 18.9694 27.5305 15.5 23.25 15.5ZM28.0072 22.878L24.5158 26.2544C23.932 26.8305 23.157 27.1211 22.3807 27.1211C21.6044 27.1211 20.8268 26.8305 20.2327 26.2505L18.4837 24.53C17.9735 24.0302 17.9671 23.2125 18.4657 22.7036C18.9642 22.1934 19.7819 22.1857 20.2921 22.6855L22.041 24.4047C22.227 24.5882 22.5318 24.5843 22.7152 24.4022L26.2195 21.0128C26.7323 20.5207 27.5512 20.5349 28.0459 21.0503C28.5393 21.5644 28.5225 22.382 28.0085 22.8767L28.0072 22.878ZM5.44018e-05 10.3592C5.44018e-05 10.345 5.44018e-05 10.3307 5.44018e-05 10.3165C0.016846 10.2003 0.032346 10.0944 0.0504292 9.97812L1.56167 4.68488C2.35346 1.91167 4.8877 0 7.77199 0H9.04169V5.16667C9.04169 5.87967 9.62035 6.45833 10.3334 6.45833C11.0463 6.45833 11.625 5.87967 11.625 5.16667V0H19.375V5.16667C19.375 5.87967 19.9524 6.45833 20.6666 6.45833C21.3809 6.45833 21.9583 5.87967 21.9583 5.16667V0H23.2267C26.1097 0 28.644 1.91167 29.437 4.68358L30.9496 9.97425C30.9664 10.0853 30.9832 10.1977 30.9999 10.3088C31.0077 12.0642 30.1358 13.6103 28.8041 14.5506C27.1986 13.5212 25.2947 12.9167 23.25 12.9167C20.6395 12.9167 18.259 13.897 16.4377 15.5H14.2083C12.6583 15.5 11.2814 14.7999 10.3334 13.7149C9.38527 14.7999 8.00836 15.5 6.45837 15.5H5.10729C2.27596 15.5 -0.0128622 13.1892 5.44018e-05 10.3592ZM16.4377 31H6.45837C3.60508 31 1.29172 28.6866 1.29172 25.8333V17.0629C2.4413 17.7242 3.74587 18.0833 5.10729 18.0833H6.45837C7.83011 18.0833 9.1644 17.7113 10.3334 17.0268C11.5023 17.7113 12.8366 18.0833 14.2083 18.0833H14.3143C13.4308 19.6049 12.9167 21.3667 12.9167 23.25C12.9167 26.3371 14.2845 29.1051 16.4377 31Z" fill="white"/>
</svg>
